<?xml version="1.0" encoding="utf-8"?>
<!-- Generator: Adobe Illustrator 25.2.1, SVG Export Plug-In . SVG Version: 6.00 Build 0)  -->
<svg version="1.1" id="Layer_1" xmlns="http://www.w3.org/2000/svg" xmlns:xlink="http://www.w3.org/1999/xlink" x="0px" y="0px"
	 viewBox="0 0 330.4 349.3" style="enable-background:new 0 0 330.4 349.3;" xml:space="preserve">
<style type="text/css">
	.st0{fill:#1F3A61;}
	.st1{fill:#223C65;}
	.st2{fill-rule:evenodd;clip-rule:evenodd;fill:#1F3A61;}
</style>
<g id="Layer_3">
	<path class="st0" d="M130.8,70.4V49l17.2,3l0.2-0.5c-13.8-6.2-27.8-12.2-41.8-19.3c1.7-0.8,3-1.5,4.3-2.1c18-8.6,36-17.1,54-25.7
		c0.7-0.4,1.6-0.4,2.3,0l46.5,22.1c3.9,1.9,7.9,3.7,12,5.7l-8.5,4.1c-4.9,2.3-9.8,4.7-14.7,7c-0.8,0.2-1.3,1-1.2,1.8
		c0,7.7,0,15.4,0.1,23.2v1.5c-23.2-5.8-47.4-5.6-70.5,0.4L130.8,70.4z"/>
	<polygon class="st0" points="180.2,328.4 166.6,321.3 153.2,328.6 155.7,313.4 144.7,302.8 159.8,300.5 166.4,286.7 173.2,300.4 
		188.3,302.5 177.5,313.3 	"/>
	<path class="st1" d="M284.4,80c-20.8,2.7-36.9-10.6-41.5-33.9C261.9,44.4,283.2,61.6,284.4,80z"/>
	<path class="st1" d="M45.9,80c2.2-18.8,19.3-32.8,41.3-34.2C84.6,70.3,62.8,83.8,45.9,80z"/>
	<path class="st1" d="M7.5,197c13.5-1.3,27.2,9.9,27.1,22.3C22.6,221.3,11.1,211.9,7.5,197z"/>
	<path class="st1" d="M299.9,102c-10.1-8.7-9.8-23,0.6-34.2C309.5,78.8,309.2,93.8,299.9,102z"/>
	<path class="st1" d="M308.2,129.3c-7.2-12.3-3.9-24.4,8.6-33.3C323.1,104.9,319.8,124.8,308.2,129.3z"/>
	<path class="st1" d="M310.2,159.9c-4.5-13.5,0.6-22.8,16.3-30.9C331.2,139.3,323.4,154.4,310.2,159.9z"/>
	<path class="st1" d="M20.5,159.7C9.5,155.8,2.4,145.2,3,133.6c0-3.6,1.1-4.5,4.6-3C18.8,135.3,24.4,148.1,20.5,159.7z"/>
	<path class="st1" d="M58.4,281.9c12.2-9.7,26.6-9.1,36,1.3C84.8,291.5,72.3,291.2,58.4,281.9z"/>
	<path class="st1" d="M22.4,190.8c-10.2,0.4-20-10.6-22.3-22.8c-0.5-2.4,0.3-3.7,3-3.5C14.4,165.3,24.9,179.5,22.4,190.8z"/>
	<path class="st1" d="M322.7,197c-1.7,13.1-12.9,22.9-26.1,22.7C295.5,207.2,307.5,196.7,322.7,197z"/>
	<path class="st1" d="M307.9,190.9c-1.5-14,7.8-24.6,22.5-26.4C330,178.8,320.9,189.6,307.9,190.9z"/>
	<path class="st1" d="M282.2,242.4c6.3-13,16.5-17.5,32.4-14.7C309.8,240.1,293.8,247.6,282.2,242.4z"/>
	<path class="st1" d="M123,294.5c-8.3,10.3-20,12.9-34.8,8c6.9-11.8,21.9-15.7,33.6-8.8C122.2,293.9,122.6,294.2,123,294.5z"/>
	<path class="st1" d="M13.3,96.2c13.3,8.7,16.9,22.3,8.6,33C11.1,122.5,7.6,109.1,13.3,96.2z"/>
	<path class="st1" d="M69.9,265.2c-12,6.5-25.2,3.8-35.3-7C47.4,250.6,61.8,253.4,69.9,265.2z"/>
	<path class="st1" d="M30.6,102.1c-9.1-8.3-9.5-19.3-1.2-34.2c9.7,7.4,11.5,21.4,4.1,31.1C32.7,100.1,31.7,101.1,30.6,102.1z"/>
	<path class="st1" d="M243,302.4c-16.6,4.8-28.1,2.1-34.9-7.7C216.9,285.5,235.2,290.8,243,302.4z"/>
	<path class="st1" d="M48.4,242.9c-13,3.9-26.9-2.5-32.6-14.9C29.7,225.6,41.6,227.7,48.4,242.9z"/>
	<path class="st1" d="M260.8,265.2c6.9-9.8,19.3-15.1,34.1-7.1C285.9,269,272.6,271.7,260.8,265.2z"/>
	<path class="st1" d="M236.2,283.2c5.7-9.5,23-8.9,31.4-3.5c2.6,1.6,2.6,2.9,0.2,4.7C260,290.4,243.4,289.8,236.2,283.2z"/>
	<path class="st1" d="M86.5,251.9c11.4,7.8,14.7,16.2,10.8,26.8C84.6,272.6,81.2,264.3,86.5,251.9z"/>
	<path class="st1" d="M25.5,159.8c1.2-15.7,5.8-21.2,18.5-22.7C45.6,147.7,38.1,157,25.5,159.8z"/>
	<path class="st1" d="M41.2,164.1c2.6,12.4-2.3,21.8-13.1,25.8C24.8,176,27.9,169.8,41.2,164.1z"/>
	<path class="st1" d="M267.9,92.4c12.7-3.6,18.8-0.9,27.7,12.1C284.6,108,272.8,102.9,267.9,92.4z"/>
	<path class="st1" d="M244.3,251.9c4.9,12.1,1.8,19.9-10.5,26.6C228.7,269.5,233.4,257.4,244.3,251.9z"/>
	<path class="st1" d="M62.6,92.3c-4.6,10.6-15.7,15.5-27.1,12.2C42,92,49.2,88.7,62.6,92.3z"/>
	<path class="st1" d="M257.7,261.2c-6.4-9.1-4.1-19.7,6-28.1C270.4,244,269,250.5,257.7,261.2z"/>
	<path class="st1" d="M206.6,289.8c-1.4-11.8,3.8-18.5,17.9-23.7c1.1,5.9-0.9,10.7-3.5,15.7C218,287.7,211.8,286.9,206.6,289.8z"/>
	<path class="st1" d="M106,266.4c12.5,2.9,19,11,18.3,22.8C110.2,285.8,104.8,279.2,106,266.4z"/>
	<path class="st1" d="M303.5,130.1c-10.8,2.1-19.9-4.5-23.9-17.5c6-0.9,11,1.4,16.1,3.8C301.9,119.2,300.9,125.5,303.5,130.1z"/>
	<path class="st1" d="M291.7,217.9c-10.1-4-14-14.9-9.7-27.1C293,196.3,295.4,203.1,291.7,217.9z"/>
	<path class="st1" d="M305.1,159.3c-11.2-0.9-17.6-8.5-18.8-21.8C297.5,137.3,303.9,144.5,305.1,159.3z"/>
	<path class="st1" d="M48,190.7c5.8,9.8,2,21.4-8.5,27.2C34,205.5,36.3,198,48,190.7z"/>
	<path class="st1" d="M302.8,189.5c-10.4-2.4-15.4-11.3-14.1-24.8C299.7,166,305,175.4,302.8,189.5z"/>
	<path class="st1" d="M277.5,211c8.9,10.8,9.2,15.7,1.5,28.9C269.9,234.1,269.3,222.4,277.5,211z"/>
	<path class="st1" d="M26.7,130.4c3-5.2,2.2-11.9,8.8-14.5c4.9-1.9,9.6-4.2,15.1-3.3C47.3,125.3,38.9,131.7,26.7,130.4z"/>
	<path class="st1" d="M52.1,240.2c-8.4-12.8-8.1-18.9,0.8-28.8C60.7,220.4,60.5,232,52.1,240.2z"/>
	<path class="st1" d="M66.3,233.6c10.9,9.5,12.9,18,6.8,27.8C62,251.4,60.1,243.8,66.3,233.6z"/>
	<path class="st2" d="M137.6,187.1c-5.4,0-9.8,4.4-9.8,9.9c0,5.5,4.4,9.9,9.8,9.9s9.8-4.4,9.8-9.9l0,0
		C147.5,191.5,143.1,187.1,137.6,187.1z"/>
	<path class="st2" d="M151.4,215.1c-2.8,0-5.1,2.3-5.1,5.2c0,2.8,2.3,5.2,5.1,5.2c2.8,0,5.1-2.3,5.1-5.2
		C156.5,217.4,154.2,215.1,151.4,215.1L151.4,215.1z"/>
	<path class="st2" d="M164.9,185.2c-2.8,0-5.1,2.3-5.1,5.2c0,2.8,2.3,5.2,5.1,5.2c2.8,0,5.1-2.3,5.1-5.1
		C170,187.5,167.7,185.2,164.9,185.2z"/>
	<path class="st2" d="M142.7,152.3c-5,0-9,4.1-9,9.1c0,5,4,9.1,9,9.1s9-4.1,9-9.1C151.7,156.3,147.7,152.3,142.7,152.3z"/>
	<path class="st2" d="M146.9,72.7c-5.6-0.3-10.4,4.1-10.7,9.8c0,0.2,0,0.3,0,0.5c0,7-1.1,13.1,4.1,17l-0.7,20.5
		c-34.7,8.8-57.7,45-55.1,80.6c2.3,31.3,21.7,56,50,68.8c22.7,10.3,29.2-26.7,52.6-16.2c0.3-1.2,0.5-2.4,0.9-3.6
		c-30.1-11.7-39.3,30.8-58.4,10.5c1.5-2.7,3.7-4.8,6.4-6.2v8.8c0.9,0.4,2,0.7,3,0.8v-10.7l1.9-0.4V264c1-0.1,2-0.3,2.9-0.5v-10.7
		c0.8,0,1.7,0.1,2.5,0.3v9.4c1-0.5,2-1.1,2.9-1.7V254c1.6,0.7,3,1.7,4.2,2.9l2.5-1.9c-7-8.3-15.4-7.6-24-4.9
		c-46.8-27.9-37.8-98.7,14.1-114.1c2.2-14,3-28.2,2.2-42.4c-4.7,0-3.8-0.3-3.8-10.8c0-1.5,1.1-2,2.5-2.1c0.8,0.1,1.6,0.1,2.4,0
		c2.3,0.1,4.2-1.6,4.4-3.9c0.1-2.3-1.6-4.2-3.9-4.4c-0.2,0-0.3,0-0.5,0L146.9,72.7z"/>
	<path class="st2" d="M237.3,212H228c0-1,0.2-2.1,0.2-3.1h10.1c0.2-1,0.4-2,0.6-3h-10.4c0.2-1.1,0.3-2.1,0.5-3.1h10.2
		c0-1-0.1-2-0.2-3h-9.3c0.2-1,0.5-1.9,0.7-2.8h8.1c-0.2-1-0.6-2-0.9-3h-6.2c0.8-2,1.7-4,2.8-5.8l0,0l1.2-1.7
		c9.9,11.3,7.2,30.2-5.2,37c0,1.4,0,2.8,0,4.2c7.2-3,13.4-7.7,15.9-19.7c1.8-8.6-0.2-17.6-5.5-24.5c-4.6-27.5-23.2-50.4-49-60.6
		l-0.9-23.1c5.3-3.9,4.1-10,4.1-17c0-5.7-4.6-10.3-10.2-10.3h-3c-2.3,0.1-4,2.1-3.9,4.4c0.1,2.1,1.8,3.8,3.9,3.9h3c3,0,2,5.5,2,10.8
		c0,2.3-2.5,2-3.8,2c-0.7,11.9-0.3,23.9,1.2,35.8l1.2,8c22.2,8.4,37.8,28.7,40.2,52.5l0,0c-7.1,9.2-4.6,28.3-4.8,43.2l0,0
		c-0.3,7.6-1.5,14-5.4,17.6c-4.2,3.9-11.1,5-16.7,3.7c-0.4,1.1-0.7,2.2-1.1,3.3c34.2,7.4,29.5-18,30.4-42.8h8.1
		C236.5,213.9,237,213,237.3,212z"/>
	<path class="st2" d="M149.6,272.3c7.2,6.3,17,8.6,26.2,6.3c18.2-5.1,17.4-18.7,23.1-30.5l5.3,5.4c1.2-0.1,2.3-0.4,3.4-0.8l-7.3-7.3
		c0.5-0.8,1-1.6,1.5-2.3l8.4,8.4c0.9-0.5,1.7-1.1,2.4-1.7l-9-9.1c0.5-0.5,0.9-1,1.4-1.4c0.2-0.2,0.4-0.4,0.6-0.6l9,9.1
		c0.6-0.8,1.2-1.6,1.7-2.5l-8.3-8.4c0.7-0.5,1.5-1,2.3-1.5l7.2,7.3c0.4-1.1,0.6-2.3,0.8-3.4l-5.3-5.3c1.8-0.9,3.6-1.6,5.5-2.3
		c0-1.4,0-2.8,0-4.3c-6.6,1.5-13.5,2.8-19.2,7.2s-7.8,9.7-9.1,15.1l-0.2,0.8c-0.3,1.2-0.5,2.4-0.8,3.6l-0.6,2.4l0,0
		c-0.3,1.3-0.7,2.6-1.1,3.9l-3.9-6c-1.2-0.2-2.4-0.2-3.6-0.1l6.1,9.4c-0.7,1.4-1.7,2.8-2.7,4l-7.9-12.5c-1,0.3-1.9,0.7-2.8,1.1
		l8.5,13.5c-1.2,1-2.6,1.9-4,2.6l-8.2-14.1c-0.8,0.5-1.6,1-2.4,1.6l8,13.6c-1.8,0.7-3.7,1.1-5.6,1.3l-6.4-12c-0.7,0.7-1.5,1.3-2.3,2
		l5.3,10.1c-4.6-0.1-9.1-1.7-12.8-4.5C151.9,271.2,150.8,271.8,149.6,272.3z"/>
</g>
</svg>
