<svg xmlns="http://www.w3.org/2000/svg" viewBox="0 0 500 500"><g id="freepik--Objects--inject-2"><path d="M402.83,384.63H376.46v27.93h0c0,1.95,1.29,3.9,3.86,5.39,5.15,3,13.5,3,18.65,0,2.57-1.49,3.86-3.44,3.86-5.39h0Z" style="fill:#BA68C8"></path><path d="M402.83,384.63H376.46v27.93h0c0,1.95,1.29,3.9,3.86,5.39,5.15,3,13.5,3,18.65,0,2.57-1.49,3.86-3.44,3.86-5.39h0Z" style="opacity:0.4"></path><ellipse cx="389.64" cy="384.65" rx="13.18" ry="7.61" style="fill:#BA68C8"></ellipse><path d="M413,370.55H366.28v10.58h0c0,3.45,2.28,6.9,6.84,9.54,9.13,5.27,23.92,5.27,33.05,0,4.56-2.64,6.84-6.09,6.84-9.54h0Z" style="fill:#BA68C8"></path><path d="M413,370.55H366.28v10.58h0c0,3.45,2.28,6.9,6.84,9.54,9.13,5.27,23.92,5.27,33.05,0,4.56-2.64,6.84-6.09,6.84-9.54h0Z" style="opacity:0.2"></path><path d="M406.17,380.12c-9.13,5.27-23.92,5.27-33.05,0s-9.13-13.81,0-19.08,23.92-5.27,33.05,0S415.3,374.85,406.17,380.12Z" style="fill:#BA68C8"></path><path d="M402.83,338.39H376.46v27.94h0c0,1.94,1.29,3.89,3.86,5.38,5.15,3,13.5,3,18.65,0,2.57-1.49,3.86-3.43,3.86-5.38h0Z" style="fill:#BA68C8"></path><path d="M402.83,338.39H376.46v27.94h0c0,1.94,1.29,3.89,3.86,5.38,5.15,3,13.5,3,18.65,0,2.57-1.49,3.86-3.43,3.86-5.38h0Z" style="opacity:0.2"></path><ellipse cx="389.64" cy="338.41" rx="13.18" ry="7.61" style="fill:#BA68C8"></ellipse><polygon points="342.14 455.39 308.04 435.7 308.04 402.08 325.09 392.35 342.14 421.76 342.14 455.39" style="fill:#BA68C8"></polygon><polygon points="342.14 455.39 308.04 435.7 308.04 402.08 325.09 392.35 342.14 421.76 342.14 455.39" style="fill:#fff;opacity:0.2"></polygon><polygon points="342.14 421.76 325.09 392.35 347.62 379.33 364.67 408.75 342.14 421.76" style="fill:#BA68C8"></polygon><polygon points="342.14 455.39 342.14 421.76 364.67 408.75 364.67 442.38 342.14 455.39" style="fill:#BA68C8"></polygon><polygon points="342.14 455.39 342.14 421.76 364.67 408.75 364.67 442.38 342.14 455.39" style="opacity:0.2"></polygon></g><g id="freepik--3d-model--inject-2"><polygon points="248.26 356.59 168.17 278.93 181.85 224.63 261.94 302.29 248.26 356.59" style="fill:#BA68C8"></polygon><polygon points="346.75 278.15 261.94 302.29 248.26 356.59 333.07 332.45 346.75 278.15" style="fill:#BA68C8"></polygon><polygon points="346.75 278.15 261.94 302.29 248.26 356.59 333.07 332.45 346.75 278.15" style="opacity:0.2"></polygon><polygon points="266.66 200.5 181.85 224.63 261.94 302.29 346.75 278.15 266.66 200.5" style="fill:#BA68C8"></polygon><polygon points="266.66 200.5 181.85 224.63 261.94 302.29 346.75 278.15 266.66 200.5" style="fill:#fff;opacity:0.2"></polygon><path d="M310.69,225.87l-75.15-18.93L227,241h0c-1.4,5.55.87,12,7.14,18.11,12.54,12.17,36.33,18.16,53.14,13.38,8.4-2.38,13.47-7,14.86-12.56h0Z" style="fill:#BA68C8"></path><path d="M310.69,225.87l-75.15-18.93L227,241h0c-1.4,5.55.87,12,7.14,18.11,12.54,12.17,36.33,18.16,53.14,13.38,8.4-2.38,13.47-7,14.86-12.56h0Z" style="opacity:0.2"></path><ellipse cx="273.1" cy="216.47" rx="22.37" ry="38.74" transform="translate(-3.52 428.41) rotate(-75.86)" style="fill:#BA68C8"></ellipse></g></svg>