<svg xmlns="http://www.w3.org/2000/svg" viewBox="0 0 262.55 277.57"><defs><style>.cls-1,.cls-3{fill:#2A9D8F;}.cls-2{fill:#2A9D8F;}.cls-3{fill-rule:evenodd;}</style></defs><title>univlab logo 2</title><g id="Layer_3" data-name="Layer 3"><path class="cls-1" d="M185.76,78.93V64.79l11.48,2,.11-.31c-9.23-4.12-18.54-8.08-27.84-12.75,1.14-.55,2-1,2.85-1.37q18-8.51,36-17a1.57,1.57,0,0,1,1.53,0L240.88,50c2.63,1.24,5.27,2.46,8,3.75l-5.65,2.69c-3.27,1.55-6.54,3.12-9.83,4.63a1.13,1.13,0,0,0-.79,1.22c0,5.11,0,10.22.06,15.34v1a95.44,95.44,0,0,0-47,.28Z" transform="translate(-76.37 -35.2)"/><polygon class="cls-1" points="142.31 214.41 133.29 209.75 124.34 214.53 125.99 204.51 118.67 197.48 128.71 195.95 133.14 186.82 137.69 195.89 147.74 197.28 140.52 204.42 142.31 214.41"/><path class="cls-1" d="M87.81,291q-5.39,0-8.41-3t-3-8.55V265.29h5.85v13.94q0,3.6,1.47,5.19a6.22,6.22,0,0,0,8.31,0c1-1.06,1.48-2.79,1.48-5.19V265.29h5.77v14.15q0,5.56-3,8.55C94.2,290,91.39,291,87.81,291Z" transform="translate(-76.37 -35.2)"/><path class="cls-1" d="M108.63,290.56V265.29h4.84l14.9,18.19H126V265.29h5.77v25.27H127l-14.94-18.19h2.35v18.19Z" transform="translate(-76.37 -35.2)"/><path class="cls-1" d="M141.4,290.56V265.29h5.85v25.27Z" transform="translate(-76.37 -35.2)"/><path class="cls-1" d="M164.28,290.56l-10.9-25.27h6.32l9.53,22.38h-3.72l9.67-22.38H181l-10.93,25.27Z" transform="translate(-76.37 -35.2)"/><path class="cls-1" d="M186.69,290.56V265.29h5.85v20.5h12.67v4.77Z" transform="translate(-76.37 -35.2)"/><path class="cls-1" d="M208.92,290.56l11.26-25.27H226l11.29,25.27h-6.13l-9.24-22.31h2.31l-9.28,22.31Zm5.63-5.42,1.56-4.44h13l1.59,4.44Z" transform="translate(-76.37 -35.2)"/><path class="cls-1" d="M243.5,290.56V265.29h12.34c3.18,0,5.56.61,7.16,1.81a5.67,5.67,0,0,1,2.4,4.76,6.07,6.07,0,0,1-1,3.45,6.43,6.43,0,0,1-2.67,2.26,9.24,9.24,0,0,1-3.9.79l.69-1.48a10.77,10.77,0,0,1,4.22.78,6.31,6.31,0,0,1,2.87,2.29,6.5,6.5,0,0,1,1,3.71,5.89,5.89,0,0,1-2.57,5.08c-1.7,1.21-4.22,1.82-7.54,1.82Zm5.81-4.41h6.82a6.5,6.5,0,0,0,3.45-.74,2.58,2.58,0,0,0,1.17-2.36,2.63,2.63,0,0,0-1.17-2.36,6.29,6.29,0,0,0-3.45-.78h-7.25v-4.26h6.24a5.89,5.89,0,0,0,3.26-.74,2.49,2.49,0,0,0,1.14-2.25,2.46,2.46,0,0,0-1.14-2.22,6,6,0,0,0-3.26-.74h-5.81Z" transform="translate(-76.37 -35.2)"/><path class="cls-1" d="M295.14,291a19.84,19.84,0,0,1-5.23-.7,13.59,13.59,0,0,1-4.41-2l2.28-4.47a11.79,11.79,0,0,0,3.35,1.66,12.61,12.61,0,0,0,3.87.61,6.11,6.11,0,0,0,3.46-.86,2.76,2.76,0,0,0,1.26-2.39,2.68,2.68,0,0,0-1.11-2.27,6.18,6.18,0,0,0-3.61-.83h-2.67v-3.86l7-8L300,270H286.77v-4.7h17.68v3.79l-7,8-3-1.7h1.7c3.1,0,5.45.7,7,2.1a6.82,6.82,0,0,1,2.39,5.37,7.66,7.66,0,0,1-1.12,4,8.11,8.11,0,0,1-3.43,3A13.23,13.23,0,0,1,295.14,291Z" transform="translate(-76.37 -35.2)"/><path class="cls-1" d="M313.51,290.56V265.29H325a16,16,0,0,1,7.25,1.58,11.94,11.94,0,0,1,4.91,4.38,13.43,13.43,0,0,1,0,13.33,12,12,0,0,1-4.91,4.41,16.08,16.08,0,0,1-7.25,1.57Zm5.85-4.8h5.34a9.43,9.43,0,0,0,4.38-1,7,7,0,0,0,2.89-2.72,8.92,8.92,0,0,0,0-8.32,7,7,0,0,0-2.89-2.71,9.43,9.43,0,0,0-4.38-1h-5.34Z" transform="translate(-76.37 -35.2)"/><rect class="cls-1" x="237.12" y="272.33" width="24.63" height="1.54"/><rect class="cls-1" x="0.02" y="272.33" width="27.44" height="1.54"/><path class="cls-1" d="M115.12,312.77a3.52,3.52,0,0,1-2.6-.95,3.73,3.73,0,0,1-1-2.77v-4.78h1.2V309a2.84,2.84,0,0,0,.62,2.05,2.26,2.26,0,0,0,1.74.65,2.29,2.29,0,0,0,1.76-.65,2.89,2.89,0,0,0,.62-2.05v-4.73h1.16v4.78a3.76,3.76,0,0,1-.94,2.77A3.53,3.53,0,0,1,115.12,312.77Z" transform="translate(-76.37 -35.2)"/><path class="cls-1" d="M121.13,312.67v-8.4h1l5.55,6.9h-.51v-6.9h1.2v8.4h-1l-5.55-6.9h.51v6.9Z" transform="translate(-76.37 -35.2)"/><path class="cls-1" d="M130.88,312.67v-8.4h1.2v8.4Z" transform="translate(-76.37 -35.2)"/><path class="cls-1" d="M136.94,312.67l-3.7-8.4h1.3l3.39,7.75h-.74l3.42-7.75h1.2l-3.69,8.4Z" transform="translate(-76.37 -35.2)"/><path class="cls-1" d="M144.08,311.63H149v1h-6.09v-8.4h5.92v1.05h-4.72ZM144,307.9h4.32v1H144Z" transform="translate(-76.37 -35.2)"/><path class="cls-1" d="M150.92,312.67v-8.4h3.27a4.66,4.66,0,0,1,1.89.35,2.66,2.66,0,0,1,1.2,1,3.14,3.14,0,0,1,0,3.14,2.7,2.7,0,0,1-1.2,1,4.66,4.66,0,0,1-1.89.35h-2.61l.54-.55v3.1Zm1.2-3-.54-.58h2.58a2.65,2.65,0,0,0,1.74-.5,1.72,1.72,0,0,0,.6-1.4,1.7,1.7,0,0,0-.6-1.39,2.65,2.65,0,0,0-1.74-.49h-2.58l.54-.6Zm4.41,3-2.13-3.05h1.28l2.16,3.05Z" transform="translate(-76.37 -35.2)"/><path class="cls-1" d="M162.09,312.77a5.68,5.68,0,0,1-1.84-.3,3.77,3.77,0,0,1-1.38-.76l.45-.93a3.75,3.75,0,0,0,1.22.69,4.3,4.3,0,0,0,1.55.28,3.57,3.57,0,0,0,1.19-.17,1.41,1.41,0,0,0,.67-.46,1.13,1.13,0,0,0,.21-.67.88.88,0,0,0-.28-.69,2.08,2.08,0,0,0-.73-.43,7.8,7.8,0,0,0-1-.28c-.36-.08-.72-.18-1.09-.28a4.91,4.91,0,0,1-1-.42,2.07,2.07,0,0,1-.73-.68,2,2,0,0,1-.27-1.09,2.23,2.23,0,0,1,.34-1.2,2.42,2.42,0,0,1,1.05-.87,4.39,4.39,0,0,1,1.82-.33,5.5,5.5,0,0,1,1.45.19,4.08,4.08,0,0,1,1.25.55l-.39,1a3.9,3.9,0,0,0-1.14-.52,4.39,4.39,0,0,0-1.17-.16,3.17,3.17,0,0,0-1.16.18,1.4,1.4,0,0,0-.67.48,1.13,1.13,0,0,0-.21.67,1,1,0,0,0,.28.71,2.28,2.28,0,0,0,.74.42c.3.1.63.19,1,.28s.72.18,1.08.28a4.76,4.76,0,0,1,1,.41,2,2,0,0,1,.72.67,1.88,1.88,0,0,1,.28,1.08,2.15,2.15,0,0,1-.35,1.18,2.37,2.37,0,0,1-1.07.88A4.47,4.47,0,0,1,162.09,312.77Z" transform="translate(-76.37 -35.2)"/><path class="cls-1" d="M167.09,312.67v-8.4h1.2v8.4Z" transform="translate(-76.37 -35.2)"/><path class="cls-1" d="M172.48,312.67v-7.35H169.6v-1.05h7v1.05h-2.88v7.35Z" transform="translate(-76.37 -35.2)"/><path class="cls-1" d="M179.79,312.67v-3.21l.27.74-3.61-5.93h1.29l3,5h-.69l3-5h1.19l-3.6,5.93.27-.74v3.21Z" transform="translate(-76.37 -35.2)"/><path class="cls-1" d="M192.54,312.77a4.74,4.74,0,0,1-1.78-.33,4.1,4.1,0,0,1-1.42-.9,4.41,4.41,0,0,1-.94-4.77,4.19,4.19,0,0,1,.94-1.36,4.27,4.27,0,0,1,1.42-.91,4.7,4.7,0,0,1,1.78-.32,4.84,4.84,0,0,1,1.77.31,4.38,4.38,0,0,1,1.42.91,4,4,0,0,1,.94,1.36,4.62,4.62,0,0,1,0,3.43,4.15,4.15,0,0,1-.94,1.36,4.19,4.19,0,0,1-1.42.9A4.84,4.84,0,0,1,192.54,312.77Zm0-1.07a3.37,3.37,0,0,0,1.29-.24,3,3,0,0,0,1-.68,3.09,3.09,0,0,0,.68-1,3.41,3.41,0,0,0,.25-1.29,3.36,3.36,0,0,0-.25-1.28,3,3,0,0,0-1.72-1.7,3.37,3.37,0,0,0-1.29-.25,3.46,3.46,0,0,0-1.3.25,3.26,3.26,0,0,0-1,.67,3.16,3.16,0,0,0-.93,2.31,3.4,3.4,0,0,0,.24,1.29,3.28,3.28,0,0,0,.69,1,3.12,3.12,0,0,0,1,.68A3.46,3.46,0,0,0,192.54,311.7Z" transform="translate(-76.37 -35.2)"/><path class="cls-1" d="M200,312.67h-1.2v-8.4h5.93v1.05H200Zm-.12-4.43h4.33v1h-4.33Z" transform="translate(-76.37 -35.2)"/><path class="cls-1" d="M210.88,312.67h-1.2v-8.4h5.93v1.05h-4.73Zm-.12-4.43h4.33v1h-4.33Z" transform="translate(-76.37 -35.2)"/><path class="cls-1" d="M218.5,311.63h4.9v1h-6.1v-8.4h5.93v1.05H218.5Zm-.11-3.73h4.32v1h-4.32Z" transform="translate(-76.37 -35.2)"/><path class="cls-1" d="M225.34,312.67v-8.4h3.28a4.64,4.64,0,0,1,1.88.35,2.66,2.66,0,0,1,1.2,1,3.14,3.14,0,0,1,0,3.14,2.7,2.7,0,0,1-1.2,1,4.64,4.64,0,0,1-1.88.35H226l.54-.55v3.1Zm1.2-3-.54-.58h2.58a2.68,2.68,0,0,0,1.75-.5,1.74,1.74,0,0,0,.59-1.4,1.72,1.72,0,0,0-.59-1.39,2.68,2.68,0,0,0-1.75-.49H226l.54-.6Zm4.42,3-2.14-3.05h1.28l2.16,3.05Z" transform="translate(-76.37 -35.2)"/><path class="cls-1" d="M235.26,312.67h-1.2v-8.4h1.2Zm4.94-3.74h-5.06v-1.05h5.06Zm-.11-4.66h1.2v8.4h-1.2Z" transform="translate(-76.37 -35.2)"/><path class="cls-1" d="M242.54,312.67l3.8-8.4h1.19l3.81,8.4h-1.26l-3.39-7.73h.48l-3.4,7.73Zm1.62-2.1.32-1h4.73l.34,1Z" transform="translate(-76.37 -35.2)"/><path class="cls-1" d="M253.84,312.67v-7.35H251v-1.05h7v1.05H255v7.35Z" transform="translate(-76.37 -35.2)"/><path class="cls-1" d="M261.17,312.67l3.8-8.4h1.19l3.82,8.4h-1.26l-3.4-7.73h.48l-3.39,7.73Zm1.62-2.1.33-1h4.72l.35,1Z" transform="translate(-76.37 -35.2)"/><path class="cls-1" d="M271.23,312.67v-8.4H275a3.76,3.76,0,0,1,2.24.58,1.88,1.88,0,0,1,.78,1.59,2.13,2.13,0,0,1-.31,1.16,2,2,0,0,1-.82.72,2.52,2.52,0,0,1-1.12.25l.22-.36a3,3,0,0,1,1.27.25,2.05,2.05,0,0,1,.88.74,2.16,2.16,0,0,1,.32,1.21,2,2,0,0,1-.81,1.67,4.1,4.1,0,0,1-2.41.59Zm1.2-1h2.76a2.78,2.78,0,0,0,1.52-.34,1.15,1.15,0,0,0,.53-1.05,1.17,1.17,0,0,0-.53-1.07,2.88,2.88,0,0,0-1.52-.33h-2.87v-1h2.57a2.56,2.56,0,0,0,1.41-.33,1.26,1.26,0,0,0,0-2,2.55,2.55,0,0,0-1.41-.34h-2.46Z" transform="translate(-76.37 -35.2)"/><path class="cls-1" d="M280.31,312.67v-8.4h3.77a3.73,3.73,0,0,1,2.23.58,1.88,1.88,0,0,1,.78,1.59,2.05,2.05,0,0,1-.31,1.16,2,2,0,0,1-.82.72,2.44,2.44,0,0,1-1.11.25l.21-.36a3,3,0,0,1,1.27.25,2.05,2.05,0,0,1,.88.74,2.08,2.08,0,0,1,.32,1.21,2,2,0,0,1-.81,1.67,4.08,4.08,0,0,1-2.4.59Zm1.2-1h2.76a2.78,2.78,0,0,0,1.52-.34,1.13,1.13,0,0,0,.53-1.05,1.15,1.15,0,0,0-.53-1.07,2.88,2.88,0,0,0-1.52-.33H281.4v-1H284a2.59,2.59,0,0,0,1.42-.33,1.15,1.15,0,0,0,.5-1,1.14,1.14,0,0,0-.5-1,2.59,2.59,0,0,0-1.42-.34h-2.46Z" transform="translate(-76.37 -35.2)"/><path class="cls-1" d="M288.12,312.67l3.81-8.4h1.18l3.82,8.4h-1.26l-3.4-7.73h.48l-3.39,7.73Zm1.62-2.1.33-1h4.72l.35,1Z" transform="translate(-76.37 -35.2)"/><path class="cls-1" d="M300.63,312.77a5.68,5.68,0,0,1-1.84-.3,3.77,3.77,0,0,1-1.38-.76l.44-.93a3.8,3.8,0,0,0,1.23.69,4.26,4.26,0,0,0,1.55.28,3.51,3.51,0,0,0,1.18-.17,1.39,1.39,0,0,0,.68-.46,1.13,1.13,0,0,0,.21-.67.88.88,0,0,0-.28-.69,2.08,2.08,0,0,0-.73-.43,7.8,7.8,0,0,0-1-.28c-.36-.08-.72-.18-1.09-.28a4.91,4.91,0,0,1-1-.42,1.89,1.89,0,0,1-1-1.77,2.24,2.24,0,0,1,.35-1.2,2.36,2.36,0,0,1,1.05-.87,4.36,4.36,0,0,1,1.82-.33,5.5,5.5,0,0,1,1.45.19,4.08,4.08,0,0,1,1.25.55l-.4,1a4,4,0,0,0-1.13-.52,4.45,4.45,0,0,0-1.17-.16,3.17,3.17,0,0,0-1.16.18,1.4,1.4,0,0,0-.67.48,1.13,1.13,0,0,0-.21.67.92.92,0,0,0,.28.71,2.23,2.23,0,0,0,.73.42c.3.1.63.19,1,.28s.73.18,1.09.28a4.76,4.76,0,0,1,1,.41,2,2,0,0,1,.72.67,1.88,1.88,0,0,1,.28,1.08,2.15,2.15,0,0,1-.35,1.18,2.37,2.37,0,0,1-1.07.88A4.47,4.47,0,0,1,300.63,312.77Z" transform="translate(-76.37 -35.2)"/><path class="cls-2" d="M288.17,85.32c-13.87,1.77-24.62-7-27.68-22.41C273.15,61.72,287.36,73.12,288.17,85.32Z" transform="translate(-76.37 -35.2)"/><path class="cls-2" d="M129.2,85.3c1.45-12.41,12.84-21.68,27.54-22.62C155,78.88,140.42,87.83,129.2,85.3Z" transform="translate(-76.37 -35.2)"/><path class="cls-2" d="M103.58,162.73c9-.87,18.1,6.57,18.06,14.78C113.63,178.8,106,172.53,103.58,162.73Z" transform="translate(-76.37 -35.2)"/><path class="cls-2" d="M298.46,99.83c-6.73-5.76-6.55-15.22.43-22.63C304.92,84.51,304.72,94.41,298.46,99.83Z" transform="translate(-76.37 -35.2)"/><path class="cls-2" d="M304,117.9c-4.77-8.12-2.61-16.11,5.75-22C313.94,101.76,311.75,114.93,304,117.9Z" transform="translate(-76.37 -35.2)"/><path class="cls-2" d="M305.34,138.13c-3-8.9.38-15.11,10.89-20.45C319.37,124.52,314.15,134.54,305.34,138.13Z" transform="translate(-76.37 -35.2)"/><path class="cls-2" d="M112.21,138a17.39,17.39,0,0,1-11.67-17.27c0-2.4.75-3,3.08-2A15.5,15.5,0,0,1,112.21,138Z" transform="translate(-76.37 -35.2)"/><path class="cls-2" d="M137.5,218.9c8.15-6.42,17.75-6,24,.86C155.09,225.22,146.76,225,137.5,218.9Z" transform="translate(-76.37 -35.2)"/><path class="cls-2" d="M113.53,158.62c-6.79.29-13.36-7-14.88-15.06-.3-1.6.23-2.46,2-2.34C108.18,141.72,115.18,151.15,113.53,158.62Z" transform="translate(-76.37 -35.2)"/><path class="cls-2" d="M313.7,162.71a17.23,17.23,0,0,1-17.37,15C295.54,169.43,303.54,162.52,313.7,162.71Z" transform="translate(-76.37 -35.2)"/><path class="cls-2" d="M303.82,158.65c-1-9.23,5.18-16.28,15-17.48C318.54,150.65,312.46,157.82,303.82,158.65Z" transform="translate(-76.37 -35.2)"/><path class="cls-2" d="M286.66,192.75c4.21-8.58,11-11.58,21.6-9.71C305.09,191.21,294.41,196.18,286.66,192.75Z" transform="translate(-76.37 -35.2)"/><path class="cls-2" d="M180.59,227.18c-5.55,6.8-13.35,8.52-23.21,5.29A16.35,16.35,0,0,1,180.59,227.18Z" transform="translate(-76.37 -35.2)"/><path class="cls-2" d="M107.47,96c8.86,5.75,11.24,14.76,5.76,21.8C106,113.43,103.63,104.58,107.47,96Z" transform="translate(-76.37 -35.2)"/><path class="cls-2" d="M145.17,207.82c-8,4.28-16.79,2.49-23.53-4.62C130.19,198.17,139.8,200,145.17,207.82Z" transform="translate(-76.37 -35.2)"/><path class="cls-2" d="M119,99.9c-6.09-5.51-6.35-12.78-.8-22.65A14.67,14.67,0,0,1,119,99.9Z" transform="translate(-76.37 -35.2)"/><path class="cls-2" d="M260.54,232.43c-11.05,3.15-18.7,1.42-23.25-5.12C243.15,221.22,255.37,224.76,260.54,232.43Z" transform="translate(-76.37 -35.2)"/><path class="cls-2" d="M130.84,193.07a18.28,18.28,0,0,1-21.74-9.89C118.37,181.59,126.32,183,130.84,193.07Z" transform="translate(-76.37 -35.2)"/><path class="cls-2" d="M272.45,207.8c4.63-6.51,12.87-10,22.7-4.69C289.16,210.31,280.3,212.14,272.45,207.8Z" transform="translate(-76.37 -35.2)"/><path class="cls-2" d="M256,219.72c3.83-6.27,15.36-5.89,20.92-2.33,1.71,1.09,1.7,1.89.13,3.09C271.92,224.46,260.82,224.09,256,219.72Z" transform="translate(-76.37 -35.2)"/><path class="cls-2" d="M156.24,199.05c7.61,5.16,9.81,10.73,7.18,17.72C155,212.71,152.7,207.23,156.24,199.05Z" transform="translate(-76.37 -35.2)"/><path class="cls-2" d="M115.54,138.07c.83-10.36,3.86-14,12.3-15C129,130.06,124,136.23,115.54,138.07Z" transform="translate(-76.37 -35.2)"/><path class="cls-2" d="M126.06,140.92c1.71,8.21-1.56,14.45-8.73,17.09C115.09,148.84,117.15,144.71,126.06,140.92Z" transform="translate(-76.37 -35.2)"/><path class="cls-2" d="M277.15,93.48c8.48-2.41,12.51-.62,18.45,8A15.19,15.19,0,0,1,277.15,93.48Z" transform="translate(-76.37 -35.2)"/><path class="cls-2" d="M261.41,199c3.27,8,1.22,13.14-7,17.58C251,210.64,254.18,202.69,261.41,199Z" transform="translate(-76.37 -35.2)"/><path class="cls-2" d="M140.27,93.45c-3.06,7-10.49,10.24-18.08,8.09C126.6,93.23,131.36,91.05,140.27,93.45Z" transform="translate(-76.37 -35.2)"/><path class="cls-2" d="M270.36,205.14c-4.26-6-2.76-13,4-18.61C278.83,193.8,277.9,198.1,270.36,205.14Z" transform="translate(-76.37 -35.2)"/><path class="cls-2" d="M236.29,224.09c-.92-7.81,2.5-12.26,11.92-15.71.76,3.88-.58,7.06-2.3,10.36C243.87,222.68,239.74,222.2,236.29,224.09Z" transform="translate(-76.37 -35.2)"/><path class="cls-2" d="M169.23,208.61c8.32,1.93,12.66,7.3,12.21,15.08C172,221.48,168.41,217.08,169.23,208.61Z" transform="translate(-76.37 -35.2)"/><path class="cls-2" d="M300.88,118.43c-7.19,1.39-13.25-3-15.93-11.58,4-.61,7.3.94,10.75,2.5C299.85,111.22,299.14,115.38,300.88,118.43Z" transform="translate(-76.37 -35.2)"/><path class="cls-2" d="M293,176.52c-6.76-2.66-9.35-9.83-6.46-17.93C293.86,162.25,295.47,166.72,293,176.52Z" transform="translate(-76.37 -35.2)"/><path class="cls-2" d="M301.94,137.73c-7.45-.61-11.73-5.63-12.55-14.42C296.88,123.19,301.13,128,301.94,137.73Z" transform="translate(-76.37 -35.2)"/><path class="cls-2" d="M130.6,158.54c3.84,6.5,1.32,14.19-5.67,18C121.25,168.34,122.76,163.36,130.6,158.54Z" transform="translate(-76.37 -35.2)"/><path class="cls-2" d="M300.44,157.76c-6.91-1.58-10.29-7.46-9.42-16.4C298.34,142.2,301.91,148.41,300.44,157.76Z" transform="translate(-76.37 -35.2)"/><path class="cls-2" d="M283.56,171.93c5.95,7.17,6.11,10.4,1,19.14C278.46,187.23,278.07,179.52,283.56,171.93Z" transform="translate(-76.37 -35.2)"/><path class="cls-2" d="M116.39,118.63c2-3.46,1.44-7.89,5.87-9.6,3.27-1.26,6.37-2.8,10.07-2.21C130.11,115.24,124.47,119.48,116.39,118.63Z" transform="translate(-76.37 -35.2)"/><path class="cls-2" d="M133.3,191.3c-5.58-8.49-5.42-12.53.55-19.08C139.06,178.18,138.93,185.87,133.3,191.3Z" transform="translate(-76.37 -35.2)"/><path class="cls-2" d="M142.8,186.92c7.24,6.28,8.59,11.94,4.55,18.37C139.92,198.71,138.61,193.67,142.8,186.92Z" transform="translate(-76.37 -35.2)"/><path class="cls-3" d="M190.33,156.14a6.56,6.56,0,1,0,6.56,6.56A6.56,6.56,0,0,0,190.33,156.14Z" transform="translate(-76.37 -35.2)"/><path class="cls-3" d="M199.5,174.65a3.41,3.41,0,1,0,3.41,3.41A3.41,3.41,0,0,0,199.5,174.65Z" transform="translate(-76.37 -35.2)"/><path class="cls-3" d="M208.5,154.89a3.41,3.41,0,1,0,3.41,3.42A3.43,3.43,0,0,0,208.5,154.89Z" transform="translate(-76.37 -35.2)"/><path class="cls-3" d="M193.69,133.12a6,6,0,1,0,6,6A6,6,0,0,0,193.69,133.12Z" transform="translate(-76.37 -35.2)"/><path class="cls-3" d="M196.52,80.45a6.8,6.8,0,0,0-7.12,6.8c0,4.63-.76,8.66,2.75,11.26l-.45,13.58c-23.1,5.8-38.45,29.75-36.76,53.34,1.5,20.69,14.44,37.06,33.34,45.53,15.16,6.81,19.45-17.64,35.08-10.75.19-.79.36-1.59.57-2.37-20.06-7.71-26.21,20.38-38.94,6.93a10.14,10.14,0,0,1,4.24-4.12v5.79a6.44,6.44,0,0,0,2,.54v-7.09l1.28-.24V207a8.76,8.76,0,0,0,1.95-.36v-7.09a8.31,8.31,0,0,1,1.64.23V206a16.89,16.89,0,0,0,1.95-1.14v-4.42a9.81,9.81,0,0,1,2.83,1.93l1.64-1.25c-4.64-5.51-10.26-5-16-3.21-31.19-18.45-25.19-65.31,9.42-75.47a130.76,130.76,0,0,0,1.46-28.06c-3.15,0-2.52-.17-2.52-7.14,0-1,.72-1.3,1.65-1.37a8,8,0,0,0,1.59,0,2.74,2.74,0,1,0,0-5.47Z" transform="translate(-76.37 -35.2)"/><path class="cls-3" d="M256.79,172.65h-6.23c0-.68.1-1.38.15-2.07h6.75a17.86,17.86,0,0,0,.38-2h-6.92c.1-.7.19-1.38.31-2.07H258a15.71,15.71,0,0,0-.12-2h-6.21c.13-.63.3-1.26.47-1.86h5.42a18.4,18.4,0,0,0-.61-2h-4.16a22.41,22.41,0,0,1,1.88-3.84l0,0,.8-1.12c6.57,7.45,4.82,19.95-3.46,24.49,0,.93,0,1.86,0,2.77,4.82-2,8.93-5.11,10.62-13a19.71,19.71,0,0,0-3.67-16.22,52.45,52.45,0,0,0-32.65-40.07l-.59-15.27c3.51-2.6,2.75-6.63,2.75-11.26a6.81,6.81,0,0,0-6.8-6.8h-2a2.74,2.74,0,0,0,0,5.47h2c2,0,1.33,3.61,1.33,7.14,0,1.54-1.67,1.33-2.52,1.33a130.85,130.85,0,0,0,.81,23.67l.82,5.32a41.48,41.48,0,0,1,26.77,34.76h0c-4.76,6.08-3.06,18.71-3.21,28.55h0c-.19,5-1,9.25-3.59,11.66-2.8,2.59-7.37,3.33-11.12,2.44-.24.72-.49,1.44-.74,2.16,22.8,4.88,19.68-11.93,20.29-28.34h5.39A14,14,0,0,0,256.79,172.65Z" transform="translate(-76.37 -35.2)"/><path class="cls-3" d="M198.3,212.54a19.47,19.47,0,0,0,17.48,4.16c12.12-3.4,11.61-12.4,15.39-20.21l3.55,3.55a9.74,9.74,0,0,0,2.26-.51l-4.84-4.84a14.83,14.83,0,0,1,1-1.52l5.6,5.58a11.22,11.22,0,0,0,1.63-1.12l-6-6c.3-.33.61-.63.93-.93.13-.14.27-.25.4-.37l6,6a10.55,10.55,0,0,0,1.13-1.63l-5.55-5.55c.49-.36,1-.68,1.5-1l4.82,4.83a10.65,10.65,0,0,0,.5-2.26l-3.5-3.52a38.7,38.7,0,0,1,3.67-1.5q0-1.39,0-2.85c-4.39,1-9,1.88-12.77,4.79s-5.17,6.44-6.08,10l-.15.55c-.19.78-.36,1.58-.55,2.38l-.38,1.61h0c-.21.86-.46,1.71-.74,2.55l-2.6-4a9.52,9.52,0,0,0-2.39-.09l4.06,6.25a13.16,13.16,0,0,1-1.82,2.65l-5.27-8.3a16.21,16.21,0,0,0-1.86.73l5.66,8.94a15.07,15.07,0,0,1-2.64,1.73l-5.49-9.33c-.53.33-1.08.69-1.63,1.09l5.34,9a15.2,15.2,0,0,1-3.71.89L207,206.37c-.49.44-1,.87-1.5,1.35l3.54,6.65a14.88,14.88,0,0,1-8.53-3A15.42,15.42,0,0,1,198.3,212.54Z" transform="translate(-76.37 -35.2)"/></g></svg>